<svg id="Layer_1" data-name="Layer 1" xmlns="http://www.w3.org/2000/svg" width="340" height="241.5" viewBox="0 0 340 241.5"><defs><style>.cls-1{fill:ivory;}</style></defs><path class="cls-1" d="M308.6,222.7a2.7679,2.7679,0,0,0-1.3.3,2.8368,2.8368,0,0,0-1,.9,2.01,2.01,0,0,0-.4,1.3v1.1h0a2.01,2.01,0,0,0,.4,1.3,2.8368,2.8368,0,0,0,1,.9,2.7679,2.7679,0,0,0,1.3.3,2.56,2.56,0,0,0,1.9-.8,2.911,2.911,0,0,0-1.9-5.3Z"/><path class="cls-1" d="M296.8,226.4a6.0449,6.0449,0,0,0-1.8.4,1.1869,1.1869,0,0,0-.1,2,3.2334,3.2334,0,0,0,1.6.3,3.34,3.34,0,0,0,1.5-.3,2.8372,2.8372,0,0,0,1.1-.8,2.1162,2.1162,0,0,0,.4-1.4V226a2.92,2.92,0,0,1-.9.2C297.9,226.3,297.4,226.3,296.8,226.4Z"/><path class="cls-1" d="M182.9,223a3.4,3.4,0,0,0-3.2,0,2.9043,2.9043,0,0,0-1.1,1.1,3.2867,3.2867,0,0,0-.4,1.7,3.0643,3.0643,0,0,0,.4,1.7,2.3452,2.3452,0,0,0,1.1,1.1,3.4,3.4,0,0,0,3.2,0,3.8374,3.8374,0,0,0,1.1-1.1,3.2867,3.2867,0,0,0,.4-1.7,3.0643,3.0643,0,0,0-.4-1.7A3.8374,3.8374,0,0,0,182.9,223Z"/><path class="cls-1" d="M326.5,222.9a3.4082,3.4082,0,0,0-1.6-.4,2.5369,2.5369,0,0,0-1.6.4,3.8374,3.8374,0,0,0-1.1,1.1l-.3.9h5.8a2.0158,2.0158,0,0,0-.3-1.1A3.8185,3.8185,0,0,0,326.5,222.9Z"/><path class="cls-1" d="M337.5,0H2.5A2.4757,2.4757,0,0,0,0,2.4512C0,2.4674,0,2.4837,0,2.5V239a2.4757,2.4757,0,0,0,2.4512,2.5c.0162,0,.0325,0,.0488,0h335a2.4757,2.4757,0,0,0,2.5-2.4512c0-.0162,0-.0325,0-.0488V2.5A2.4757,2.4757,0,0,0,337.5488,0C337.5326,0,337.5163,0,337.5,0ZM110.4,236.5l-31-86.3L142,150l28.1,11.2,15.8,44.9H164.7A17.6687,17.6687,0,0,0,147,223.7374V223.8a17.3858,17.3858,0,0,0,5.4,12.7ZM213.7,74.1l43.9-.1v30.8ZM254.9,109l-56.1,23.4L171.2,74.2l19.5-.1H205ZM206.8,69.2h-.2L164.8,40l81,29Zm-8.9,0-29,.1-1.6-3.4L154.4,38.8Zm-34,1.3-15.5,6.4,1.7-35.5ZM166,75l28.5,60.1-23.1,21.3L145,145.8l3.1-63.4Zm-22.8,4L113.8,91.2l31.3-50.3Zm-.2,5.5L140,145l-59.7.2,29-46.7Zm-37.1,9.9L85.3,103l2.4-2.6,44.4-48.1Zm-4.5,7.3L78.3,138.9V111.3Zm72.8,129H171L166,219v11.7h-1.9V217.4h3.1l5,11.8V217.4h1.9v13.3Zm11.5-2.3a5.1607,5.1607,0,0,1-1.8,1.8,4.5574,4.5574,0,0,1-2.6.6,5.26,5.26,0,0,1-2.6-.6,5.1615,5.1615,0,0,1-1.8-1.8,4.5574,4.5574,0,0,1-.6-2.6,5.5359,5.5359,0,0,1,.6-2.6,4.2361,4.2361,0,0,1,1.8-1.7,5.5359,5.5359,0,0,1,2.6-.6,5.26,5.26,0,0,1,2.6.6,5.8138,5.8138,0,0,1,1.8,1.7,5.9333,5.9333,0,0,1,0,5.2ZM174.9,160,199,137.8l59.8-24.9,10.9,26.6,27.1,66.6H191.1Zm20,70.7H193V217.4h1.9Zm16.4-5.4v5.4h-1.9v-6.5a1.4457,1.4457,0,0,0-.2-.7,1.205,1.205,0,0,0-.5-.5,2.6,2.6,0,0,0-2,0,4.35,4.35,0,0,0-.7.6,2.4706,2.4706,0,0,0-.4.9,2.7682,2.7682,0,0,0-.1.9v5.3h-1.9v-6.3a1.4446,1.4446,0,0,0-.2-.7,2.649,2.649,0,0,0-.5-.6,2.6,2.6,0,0,0-2,0,4.35,4.35,0,0,0-.7.6,3.5523,3.5523,0,0,0-.4.9,3.4055,3.4055,0,0,0-.1,1v5.2h-2v-9.6h2v1.3a3.8185,3.8185,0,0,1,.9-.9,3.0769,3.0769,0,0,1,1.9-.6,2.9688,2.9688,0,0,1,1.8.5,2.2087,2.2087,0,0,1,1,1.3v.1a3.4819,3.4819,0,0,1,1.1-1.3,3.0183,3.0183,0,0,1,1.9-.5,3.4238,3.4238,0,0,1,1.8.4,2.3351,2.3351,0,0,1,1,1.2,4.8455,4.8455,0,0,1,.3,1.8c-.1.1-.1.4-.1.8Zm9.7,5.4-.2-.2c-.1-.1-.1-.3-.2-.4a4.3363,4.3363,0,0,1-.1-.5c-.1.2-.3.3-.5.5a3.1,3.1,0,0,1-1.3.6,8.8068,8.8068,0,0,1-1.7.2,5.41,5.41,0,0,1-1.9-.3,3.25,3.25,0,0,1-1.3-1,2.41,2.41,0,0,1-.4-1.5,2.7668,2.7668,0,0,1,.5-1.6,3.881,3.881,0,0,1,1.4-1,11.6979,11.6979,0,0,1,2-.5q1.65-.15,2.4-.3c.5-.1.7-.3.7-.5h0a1.1488,1.1488,0,0,0-.6-1.1,3.0063,3.0063,0,0,0-1.8-.4,3.5756,3.5756,0,0,0-1.9.4,1.6124,1.6124,0,0,0-.7,1.4h-1.9a3.0765,3.0765,0,0,1,.6-1.9,3.9781,3.9781,0,0,1,1.6-1.2,5.5574,5.5574,0,0,1,2.3-.4,5.3807,5.3807,0,0,1,2.2.4,3.088,3.088,0,0,1,1.6,1.1,2.7918,2.7918,0,0,1,.6,1.8v5.2c0,.2.1.4.1.6.1.2.1.3.2.5.1.1.1.2.2.3H221Zm5.9-1.4a4.0536,4.0536,0,0,0,1,.3l3.4.3a3.1956,3.1956,0,0,1,1.4.3,3.5932,3.5932,0,0,1,1,.7,2.1336,2.1336,0,0,1,.3,1.2,1.9744,1.9744,0,0,1-.6,1.4,3.4243,3.4243,0,0,1-1.7.9,10.0623,10.0623,0,0,1-2.7.3,7.1952,7.1952,0,0,1-3.6-.7,2.1383,2.1383,0,0,1-1.2-1.8,1.2674,1.2674,0,0,1,.1-.6c.1-.2.1-.3.2-.5l1.8.3c0,.1-.1.1-.1.3,0,.1-.1.3-.1.4,0,.4.3.7.8.9a6.0836,6.0836,0,0,0,2.2.3,8.63,8.63,0,0,0,1.7-.1,1.88,1.88,0,0,0,1-.4.8647.8647,0,0,0,.3-.6.6662.6662,0,0,0-.5-.7,3.5962,3.5962,0,0,0-1.1-.2L227,231a2.529,2.529,0,0,1-1.5-.6,1.4255,1.4255,0,0,1-.6-1.2,2.92,2.92,0,0,1,.2-.9,4.2378,4.2378,0,0,1,.5-.7c.1-.1.2-.1.3-.2a2.696,2.696,0,0,1-.7-.8,3.1982,3.1982,0,0,1-.5-1.9,3.606,3.606,0,0,1,.6-2,5.0178,5.0178,0,0,1,1.5-1.4,5.45,5.45,0,0,1,2.2-.5,4.0578,4.0578,0,0,1,1.9.4,3.0453,3.0453,0,0,1,1.3.9c0,.1.1.1.1.2l.2-1.3h1.8l-.7,3.7a6.1924,6.1924,0,0,1-.7,1.9,3.4838,3.4838,0,0,1-1.4,1.3,4.7664,4.7664,0,0,1-2.2.5,4.6386,4.6386,0,0,1-2.1-.4.0979.0979,0,0,0-.1.0957V228.1a.8643.8643,0,0,0-.3.6c-.2.3-.1.5.1.6Zm18.5-3v.3h-7.9a3.5449,3.5449,0,0,0,.3,1.1,3.1786,3.1786,0,0,0,1.1,1.2,3.0643,3.0643,0,0,0,1.7.4,4.1216,4.1216,0,0,0,1.2-.1,2.0115,2.0115,0,0,0,.8-.4c.2-.2.4-.3.5-.5a1.6911,1.6911,0,0,0,.2-.5h1.9a3.1978,3.1978,0,0,1-1.3,2.2,3.48,3.48,0,0,1-1.5.7,6.0141,6.0141,0,0,1-2,.3,5.26,5.26,0,0,1-2.6-.6,5.1615,5.1615,0,0,1-1.8-1.8,5.26,5.26,0,0,1-.6-2.6,5.5359,5.5359,0,0,1,.6-2.6,4.2361,4.2361,0,0,1,1.8-1.7,5.5359,5.5359,0,0,1,2.6-.6,5.26,5.26,0,0,1,2.6.6,4.6207,4.6207,0,0,1,1.7,1.7,5.1361,5.1361,0,0,1,.6,2.5c.1.1.1.2.1.4Zm14.1,4.4-.9-3.4h-4.4l-.9,3.4h-2l3.5-13.3h3.1l3.5,13.3Zm8.2,0h-2.6l-3.2-9.6h2l2.5,8.2,2.4-8.2h2Zm11.8,0-.2-.2c-.1-.1-.1-.3-.2-.4a4.3363,4.3363,0,0,1-.1-.5c-.1.2-.3.3-.5.5a3.0991,3.0991,0,0,1-1.3.6,8.8087,8.8087,0,0,1-1.7.2,5.41,5.41,0,0,1-1.9-.3,3.2487,3.2487,0,0,1-1.3-1,2.4094,2.4094,0,0,1-.4-1.5,2.7661,2.7661,0,0,1,.5-1.6,3.88,3.88,0,0,1,1.4-1,11.6979,11.6979,0,0,1,2-.5q1.65-.15,2.4-.3c.5-.1.7-.3.7-.5h0a1.149,1.149,0,0,0-.6-1.1,3.0064,3.0064,0,0,0-1.8-.4,3.5756,3.5756,0,0,0-1.9.4,1.6124,1.6124,0,0,0-.7,1.4H272a3.0765,3.0765,0,0,1,.6-1.9,3.9781,3.9781,0,0,1,1.6-1.2,5.5574,5.5574,0,0,1,2.3-.4,5.3807,5.3807,0,0,1,2.2.4,3.088,3.088,0,0,1,1.6,1.1,2.7918,2.7918,0,0,1,.6,1.8v5.2c0,.2.1.4.1.6.1.2.1.3.2.5.1.1.1.2.2.3h-1.9Zm5.9,0h-1.9v-9.6h1.9Zm-.1-11.8a1.2226,1.2226,0,0,1-.9.3,1.6123,1.6123,0,0,1-.9-.3.8116.8116,0,0,1-.4-.8.91.91,0,0,1,.4-.8,1.2219,1.2219,0,0,1,.9-.3,1.6126,1.6126,0,0,1,.9.3,1.0394,1.0394,0,0,1,.4.8.91.91,0,0,1-.4.8Zm4.8,11.8h-1.9V216.6h1.9Zm9.9,0-.2-.2c-.1-.1-.1-.3-.2-.4a4.3363,4.3363,0,0,1-.1-.5c-.1.2-.3.3-.5.5a3.1,3.1,0,0,1-1.3.6,8.8068,8.8068,0,0,1-1.7.2,5.41,5.41,0,0,1-1.9-.3,3.25,3.25,0,0,1-1.3-1,2.4107,2.4107,0,0,1-.4-1.5,2.7668,2.7668,0,0,1,.5-1.6,3.881,3.881,0,0,1,1.4-1,11.7,11.7,0,0,1,2-.5q1.65-.15,2.4-.3c.5-.1.7-.3.7-.5h0a1.1486,1.1486,0,0,0-.6-1.1,3.0063,3.0063,0,0,0-1.8-.4,3.5758,3.5758,0,0,0-1.9.4,1.6129,1.6129,0,0,0-.7,1.4h-1.9a3.0778,3.0778,0,0,1,.6-1.9,3.9784,3.9784,0,0,1,1.6-1.2,5.5569,5.5569,0,0,1,2.3-.4,5.3815,5.3815,0,0,1,2.2.4,3.088,3.088,0,0,1,1.6,1.1,2.793,2.793,0,0,1,.6,1.8v5.2c0,.2.1.4.1.6.1.2.1.3.2.5.1.1.1.2.2.3H300ZM262.6,109.1V84.5l48.7,121.6h-9.2Zm50.2,119.5a4.3623,4.3623,0,0,1-1.6,1.7,4.282,4.282,0,0,1-2.2.6,4.2,4.2,0,0,1-2.1-.6,3.9169,3.9169,0,0,1-1-.8v1.2h-2V216.6h2v5.7a3.9169,3.9169,0,0,1,1-.8,3.6448,3.6448,0,0,1,2.1-.5,4.282,4.282,0,0,1,2.2.6,3.7773,3.7773,0,0,1,1.6,1.7,5.3978,5.3978,0,0,1,.6,2.7,5.5359,5.5359,0,0,1-.6,2.6Zm4.8,2.1h-1.9V216.6h1.9Zm12.1-4.4v.3h-7.9a3.5449,3.5449,0,0,0,.3,1.1,3.1786,3.1786,0,0,0,1.1,1.2,3.0643,3.0643,0,0,0,1.7.4,4.1211,4.1211,0,0,0,1.2-.1,2.01,2.01,0,0,0,.8-.4c.2-.2.4-.3.5-.5a1.6884,1.6884,0,0,0,.2-.5h1.9a3.1972,3.1972,0,0,1-1.3,2.2,3.4794,3.4794,0,0,1-1.5.7,6.0133,6.0133,0,0,1-2,.3,5.26,5.26,0,0,1-2.6-.6,5.1624,5.1624,0,0,1-1.8-1.8,5.2618,5.2618,0,0,1-.6-2.6,5.5383,5.5383,0,0,1,.6-2.6,4.2367,4.2367,0,0,1,1.8-1.7,5.5359,5.5359,0,0,1,2.6-.6,5.2592,5.2592,0,0,1,2.6.6,4.6218,4.6218,0,0,1,1.7,1.7,5.1361,5.1361,0,0,1,.6,2.5c.2.1.1.2.1.4Zm5.3-20.2H316.7L262.4,70.6h0v-.1c0-.1-.1-.1-.1-.2a.0979.0979,0,0,0-.0958-.1H262.2V70l-.1-.1-.1-.1-.1-.1v-.1h0l-.1-.1h0l-.1-.1h-.1a.0979.0979,0,0,1-.1-.0957V69.3l-.1-.1a.0979.0979,0,0,1-.1-.0957V69.1c-.1,0-.1-.1-.2-.1a.0979.0979,0,0,1-.1-.0957V68.9h-.1L148.9,29h-2a.0979.0979,0,0,0-.1.0957V29.1h-.2a.0979.0979,0,0,0-.1.0957V29.2l-.1.1h0l-.1.1-.1.1h0L74,107.9h0c-.1.1-.2.2-.2.3h0v.1c0,.1-.1.1-.1.2v.2c0,.1,0,.1-.1.2v38.8h0v.4h0v.1c0,.1,0,.2.1.2h0l31.6,87.9H5V220H40.9a2.5,2.5,0,0,0,0-5H5V198.5H25.2a2.5,2.5,0,0,0,0-5H5V177H25.2a2.5,2.5,0,0,0,0-5H5V155.5H40.9a2.5,2.5,0,1,0,0-5H5V134H25.2a2.5,2.5,0,0,0,0-5H5V112.5H25.2a2.5,2.5,0,0,0,0-5H5V91H40.9a2.5,2.5,0,1,0,0-5H5V69.5H25.2a2.5,2.5,0,1,0,0-5H5V48H25.2a2.5,2.5,0,1,0,0-5H5V26.5H40.9a2.5,2.5,0,1,0,0-5H5V5H335Z"/><path class="cls-1" d="M276.3,226.4a6.0449,6.0449,0,0,0-1.8.4,1.1869,1.1869,0,0,0-.1,2,3.2334,3.2334,0,0,0,1.6.3,3.34,3.34,0,0,0,1.5-.3,2.8372,2.8372,0,0,0,1.1-.8,2.1162,2.1162,0,0,0,.4-1.4V226a2.92,2.92,0,0,1-.9.2C277.5,226.3,276.9,226.3,276.3,226.4Z"/><polygon class="cls-1" points="254.7 225.7 258.2 225.7 256.5 218.6 254.7 225.7"/><path class="cls-1" d="M217.9,226.4a6.0449,6.0449,0,0,0-1.8.4,1.1867,1.1867,0,0,0-.1,2,3.2334,3.2334,0,0,0,1.6.3,3.34,3.34,0,0,0,1.5-.3,2.8372,2.8372,0,0,0,1.1-.8,2.1162,2.1162,0,0,0,.4-1.4V226a2.92,2.92,0,0,1-.9.2C219,226.3,218.5,226.3,217.9,226.4Z"/><path class="cls-1" d="M242.1,222.9a3.4079,3.4079,0,0,0-1.6-.4,2.5369,2.5369,0,0,0-1.6.4,3.8374,3.8374,0,0,0-1.1,1.1l-.3.9h5.8a2.0158,2.0158,0,0,0-.3-1.1A3.8185,3.8185,0,0,0,242.1,222.9Z"/><path class="cls-1" d="M227.8,226.7a2.9038,2.9038,0,0,0,1.4.3,2.5023,2.5023,0,0,0,1.3-.3,3.1162,3.1162,0,0,0,.9-.7,2.1334,2.1334,0,0,0,.3-1.2,2.3758,2.3758,0,0,0-.3-1.2,1.7648,1.7648,0,0,0-.9-.8,2.9667,2.9667,0,0,0-2.6,0,1.7648,1.7648,0,0,0-.9.8,2.55,2.55,0,0,0,0,2.4C227.1,226.3,227.4,226.5,227.8,226.7Z"/></svg>